<svg id="visual" viewBox="0 0 960 150" width="960" height="150" xmlns="http://www.w3.org/2000/svg" xmlns:xlink="http://www.w3.org/1999/xlink" version="1.1"><rect x="0" y="0" width="960" height="150" fill="#ff4500"></rect><path d="M0 112L20 112.8C40 113.7 80 115.3 120 114.7C160 114 200 111 240 112.5C280 114 320 120 360 122.3C400 124.7 440 123.3 480 120.8C520 118.3 560 114.7 600 115.5C640 116.3 680 121.7 720 122.8C760 124 800 121 840 120.2C880 119.3 920 120.7 940 121.3L960 122L960 0L940 0C920 0 880 0 840 0C800 0 760 0 720 0C680 0 640 0 600 0C560 0 520 0 480 0C440 0 400 0 360 0C320 0 280 0 240 0C200 0 160 0 120 0C80 0 40 0 20 0L0 0Z" fill="#ff4500"></path><path d="M0 82L20 82.3C40 82.7 80 83.3 120 83C160 82.7 200 81.3 240 83.5C280 85.7 320 91.3 360 93.3C400 95.3 440 93.7 480 90.8C520 88 560 84 600 83.2C640 82.3 680 84.7 720 87C760 89.3 800 91.7 840 92.3C880 93 920 92 940 91.5L960 91L960 0L940 0C920 0 880 0 840 0C800 0 760 0 720 0C680 0 640 0 600 0C560 0 520 0 480 0C440 0 400 0 360 0C320 0 280 0 240 0C200 0 160 0 120 0C80 0 40 0 20 0L0 0Z" fill="#ff6b00"></path><path d="M0 63L20 64.2C40 65.3 80 67.7 120 67.2C160 66.7 200 63.3 240 63.5C280 63.7 320 67.3 360 67.2C400 67 440 63 480 61.8C520 60.7 560 62.3 600 62.7C640 63 680 62 720 60C760 58 800 55 840 55.3C880 55.7 920 59.3 940 61.2L960 63L960 0L940 0C920 0 880 0 840 0C800 0 760 0 720 0C680 0 640 0 600 0C560 0 520 0 480 0C440 0 400 0 360 0C320 0 280 0 240 0C200 0 160 0 120 0C80 0 40 0 20 0L0 0Z" fill="#ff8a00"></path><path d="M0 26L20 26.7C40 27.3 80 28.7 120 29.7C160 30.7 200 31.3 240 31.2C280 31 320 30 360 28.5C400 27 440 25 480 26.2C520 27.3 560 31.7 600 34.2C640 36.7 680 37.3 720 37.5C760 37.7 800 37.3 840 34.7C880 32 920 27 940 24.5L960 22L960 0L940 0C920 0 880 0 840 0C800 0 760 0 720 0C680 0 640 0 600 0C560 0 520 0 480 0C440 0 400 0 360 0C320 0 280 0 240 0C200 0 160 0 120 0C80 0 40 0 20 0L0 0Z" fill="#ffa500"></path></svg>